# xmcd
#
# Track frame offsets: 
#        150
#        11625
#        26897
#        40825
#        55132
#        70252
#        87685
#        104282
#        116552
#        131555
#        146780
#        162780
#        178192
#        193842
#        210382
#        224500
#        237327
#
# Disc length: 3375 seconds
#
# Revision: 2
# Processed by: cddbd v1.5.1PL2 Copyright (c) Steve Scherf et al.
# Submitted via: ExactAudioCopy v0.95a5
#
DISCID=020d2d11
DTITLE=Various Artist - Today's Country Gold  (Volume. 2)
DYEAR=1988
DGENRE=Country
TTITLE0=Highway 101 - Cry, Cry, Cry
TTITLE1=Nitty Gritty Dirt Band - Fishin' In The Dark
TTITLE2=Dwight Yoakam - Little Sister
TTITLE3=Rosanne Cash - Tennessee Flat Top Box
TTITLE4=Eddie Rabbitt - The Wanderer
TTITLE5=Bellamy Brothers feat. The Forrester Sisters - Too Much Is Not
TTITLE5=Enough
TTITLE6=The Judds - Turn It Loose
TTITLE7=Eddy Raven - I'm Gonna Get You
TTITLE8=Ricky Van Shelton - Somebody Lied
TTITLE9=Rodney Crowell and Rosanne Cash - It's Such A Small World
TTITLE10=George Strait - Baby Blue
TTITLE11=Merle Haggard - Twinkle Twinkle Lucky Star
TTITLE12=Holly Dunn - Daddy's Hands
TTITLE13=Steve Wariner - Baby I'm Yours
TTITLE14=The Desert Rose Band - He's Back And I'm Blue
TTITLE15=The O'Kanes - Can't Stop My Heart From Loving You
TTITLE16=Hank Williams Jr. - Young Country
EXTD=
EXTT0=
EXTT1=
EXTT2=
EXTT3=
EXTT4=
EXTT5=
EXTT6=
EXTT7=
EXTT8=
EXTT9=
EXTT10=
EXTT11=
EXTT12=
EXTT13=
EXTT14=
EXTT15=
EXTT16=
PLAYORDER=
